<svg width="488.52" height="138.061" viewBox="0 0 488.52 138.061" xmlns="http://www.w3.org/2000/svg"><g id="svgGroup" stroke-linecap="round" fill-rule="evenodd" font-size="9pt" stroke="#1c1b1b21" stroke-width="0.25" fill="#ffffff" style="stroke:#1c1b1b21;stroke-width:0.25;fill:#ffffff"><path d="M 61.02 0.36 L 61.02 58.5 L 93.24 0.9 L 109.08 0.9 L 68.76 58.68 A 245.92 245.92 0 0 1 70.561 58.558 Q 71.275 58.512 71.927 58.475 A 139.142 139.142 0 0 1 73.17 58.41 A 88.878 88.878 0 0 1 74.738 58.349 Q 75.69 58.32 76.5 58.32 Q 82.822 58.32 87.437 59.43 A 25.001 25.001 0 0 1 91.26 60.66 A 24.521 24.521 0 0 1 95.957 63.23 A 18.869 18.869 0 0 1 99.99 67.05 A 21.043 21.043 0 0 1 103.809 75.074 A 25.169 25.169 0 0 1 104.13 76.59 A 62.585 62.585 0 0 1 105.013 84.333 A 75.298 75.298 0 0 1 105.12 88.38 Q 105.12 91.62 104.94 95.4 Q 104.76 99.18 104.67 102.87 Q 104.58 106.56 104.4 109.98 A 141.719 141.719 0 0 0 104.271 113.028 Q 104.22 114.666 104.22 116.1 A 35.844 35.844 0 0 0 104.54 121.047 Q 104.888 123.538 105.614 125.593 A 16.158 16.158 0 0 0 107.19 128.88 A 17.484 17.484 0 0 0 109.716 132.042 A 12.377 12.377 0 0 0 114.48 135 A 187.159 187.159 0 0 1 111.904 135.754 Q 108.225 136.8 105.66 137.34 A 32.98 32.98 0 0 1 100.221 138.035 A 29.64 29.64 0 0 1 99 138.06 Q 90.9 138.06 87.03 132.84 A 19.016 19.016 0 0 1 83.799 125.626 Q 83.16 122.811 83.16 119.52 Q 83.16 116.327 83.395 112.35 A 172.013 172.013 0 0 1 83.43 111.78 Q 83.7 107.46 84.15 103.05 Q 84.6 98.64 84.87 94.41 A 142.034 142.034 0 0 0 85.072 90.398 Q 85.14 88.484 85.14 86.773 A 74.996 74.996 0 0 0 85.14 86.76 Q 85.14 81.864 84.276 78.177 A 23.304 23.304 0 0 0 83.79 76.41 A 23.396 23.396 0 0 0 82.651 73.491 Q 81.926 71.963 81.035 70.768 A 12.455 12.455 0 0 0 80.19 69.75 Q 77.94 67.32 74.79 66.24 Q 71.64 65.16 68.04 65.16 Q 65.41 65.16 62.116 65.825 A 45.974 45.974 0 0 0 61.02 66.06 L 61.02 135 L 41.22 135 L 41.22 10.44 A 46.647 46.647 0 0 0 30.86 14.772 A 36.389 36.389 0 0 0 21.51 22.41 Q 14.22 30.78 14.22 43.38 Q 14.22 49.14 15.57 54.54 A 17.826 17.826 0 0 0 19.144 61.527 A 23.726 23.726 0 0 0 21.78 64.26 Q 17.46 64.26 13.5 63.09 Q 9.54 61.92 6.57 59.31 A 17.681 17.681 0 0 1 2.972 54.883 A 22.171 22.171 0 0 1 1.8 52.56 Q 0.209 48.901 0.024 43.836 A 37.187 37.187 0 0 1 0 42.48 Q 0 33.84 4.5 26.19 A 47.545 47.545 0 0 1 15.095 13.803 A 54.448 54.448 0 0 1 16.47 12.69 Q 23.94 6.84 33.57 3.42 Q 43.2 0 53.46 0 Q 55.44 0 57.33 0.09 Q 59.22 0.18 61.02 0.36 Z M 269.64 45 L 287.64 45 L 287.64 57.42 A 44.086 44.086 0 0 1 290.306 53.072 Q 293.364 48.721 296.638 46.894 A 11.531 11.531 0 0 1 297.54 46.44 A 28.939 28.939 0 0 1 302.16 44.8 A 21.165 21.165 0 0 1 307.44 44.1 A 29.55 29.55 0 0 1 311.311 44.341 Q 313.363 44.613 315.131 45.189 A 17.936 17.936 0 0 1 315.63 45.36 A 20.529 20.529 0 0 1 319.449 47.174 A 17.298 17.298 0 0 1 321.66 48.78 Q 324.18 50.94 325.89 53.82 A 29.562 29.562 0 0 1 328.4 59.274 A 33.141 33.141 0 0 1 328.68 60.12 Q 330.583 56.043 332.588 53.248 A 24.75 24.75 0 0 1 333.9 51.57 A 30.961 30.961 0 0 1 336.22 49.129 Q 337.76 47.685 339.3 46.71 A 17.138 17.138 0 0 1 341.811 45.384 A 12.818 12.818 0 0 1 344.61 44.55 Q 347.22 44.1 349.38 44.1 A 35.109 35.109 0 0 1 354.577 44.462 Q 357.311 44.872 359.567 45.746 A 17.367 17.367 0 0 1 362.43 47.16 A 21.27 21.27 0 0 1 367.722 51.718 A 19.344 19.344 0 0 1 369.9 54.99 A 31.634 31.634 0 0 1 373.15 64.9 A 35.762 35.762 0 0 1 373.23 65.43 Q 374.04 71.1 374.04 76.32 Q 374.04 79.56 373.86 83.43 Q 373.68 87.3 373.5 91.35 L 373.14 99.45 Q 372.96 103.5 372.96 106.92 A 30.741 30.741 0 0 0 372.971 107.713 Q 372.994 108.607 373.066 109.811 A 117.319 117.319 0 0 0 373.14 110.97 Q 373.32 113.58 374.04 116.1 Q 374.76 118.62 376.38 120.51 A 5.235 5.235 0 0 0 379.288 122.216 A 8.024 8.024 0 0 0 381.06 122.4 A 7.461 7.461 0 0 0 385.519 120.878 Q 386.63 120.071 387.667 118.838 A 17.503 17.503 0 0 0 388.53 117.72 Q 391.86 113.04 394.02 102.78 L 400.68 102.78 Q 398.7 114.12 395.64 120.69 A 52.101 52.101 0 0 1 393.494 124.835 Q 391.404 128.436 389.16 130.68 Q 386.484 133.356 383.808 134.544 A 11.645 11.645 0 0 1 382.32 135.09 Q 378.957 136.064 376.116 136.08 A 16.838 16.838 0 0 1 376.02 136.08 A 24.513 24.513 0 0 1 371.637 135.709 Q 369.048 135.238 366.936 134.171 A 14.768 14.768 0 0 1 366.3 133.83 Q 362.34 131.58 359.82 127.8 A 24.986 24.986 0 0 1 356.993 122.007 A 30.874 30.874 0 0 1 356.13 118.98 Q 354.96 113.94 354.96 108.54 A 100.534 100.534 0 0 1 354.965 107.627 Q 354.981 105.886 355.05 102.51 Q 355.14 98.1 355.23 93.06 Q 355.32 88.02 355.41 83.52 A 890.233 890.233 0 0 0 355.449 81.446 Q 355.5 78.572 355.5 77.22 A 60.926 60.926 0 0 0 355.384 73.336 Q 355.267 71.517 355.034 69.954 A 27.178 27.178 0 0 0 354.6 67.68 A 23.227 23.227 0 0 0 353.896 65.273 Q 353.143 63.158 352.08 61.74 A 10.968 10.968 0 0 0 350.519 60.041 A 8.236 8.236 0 0 0 348.39 58.68 Q 346.32 57.78 343.98 57.78 A 10.875 10.875 0 0 0 335.697 61.334 A 13.887 13.887 0 0 0 334.89 62.28 A 16.398 16.398 0 0 0 332.898 65.69 Q 331.286 69.302 330.33 74.856 A 72.184 72.184 0 0 0 329.94 77.4 L 329.94 135 L 311.94 135 L 311.94 74.88 Q 311.94 71.64 311.67 68.58 A 18.949 18.949 0 0 0 311.116 65.358 A 15.259 15.259 0 0 0 310.32 63.09 A 9.916 9.916 0 0 0 308.67 60.496 A 8.88 8.88 0 0 0 307.26 59.22 A 6.911 6.911 0 0 0 305.087 58.186 Q 303.677 57.78 301.86 57.78 A 10.994 10.994 0 0 0 297.932 58.451 Q 295.216 59.481 293.427 62.096 A 12.496 12.496 0 0 0 293.13 62.55 Q 290.496 66.781 288.216 75.189 A 115.181 115.181 0 0 0 287.64 77.4 L 287.64 135 L 269.64 135 L 269.64 45 Z M 170.28 45 L 188.28 45 L 188.28 106.2 A 46.543 46.543 0 0 0 188.303 107.61 Q 188.324 108.29 188.363 109.063 A 103.521 103.521 0 0 0 188.46 110.7 Q 188.64 113.4 189.45 116.01 Q 190.26 118.62 191.88 120.51 A 5.296 5.296 0 0 0 195.221 122.316 A 7.685 7.685 0 0 0 196.38 122.4 Q 205.187 122.4 209.327 102.84 A 93.389 93.389 0 0 0 209.34 102.78 L 216 102.78 Q 214.02 114.12 210.96 120.69 A 52.101 52.101 0 0 1 208.814 124.835 Q 206.724 128.436 204.48 130.68 Q 201.52 133.64 198.425 134.78 A 11.999 11.999 0 0 1 197.46 135.09 Q 194.24 135.975 191.597 136.069 A 17.438 17.438 0 0 1 190.98 136.08 A 19.933 19.933 0 0 1 187.638 135.814 Q 185.564 135.461 183.87 134.64 A 16.011 16.011 0 0 1 179.226 131.291 A 15.322 15.322 0 0 1 178.83 130.86 A 18.921 18.921 0 0 1 175.585 125.662 A 21.295 21.295 0 0 1 175.5 125.46 A 36.949 36.949 0 0 1 173.543 119.087 A 40.534 40.534 0 0 1 173.52 118.98 Q 170.82 126 164.79 131.04 Q 158.76 136.08 150.12 136.08 A 28.803 28.803 0 0 1 141.286 134.654 A 33.82 33.82 0 0 1 139.23 133.92 Q 133.74 131.76 129.33 126.81 A 32.602 32.602 0 0 1 125.157 120.839 Q 123.566 117.954 122.298 114.494 A 54.796 54.796 0 0 1 122.13 114.03 A 44.138 44.138 0 0 1 120.224 106.516 Q 119.616 102.892 119.426 98.742 A 84.915 84.915 0 0 1 119.34 94.86 A 80.413 80.413 0 0 1 120.316 82.586 A 94.607 94.607 0 0 1 121.23 77.58 A 59.225 59.225 0 0 1 125.275 65.113 A 52.888 52.888 0 0 1 127.26 61.2 Q 131.4 53.82 137.88 48.96 A 24.192 24.192 0 0 1 149.619 44.337 A 31.607 31.607 0 0 1 153.54 44.1 A 23.41 23.41 0 0 1 156.345 44.276 A 28.707 28.707 0 0 1 158.13 44.55 Q 160.56 45 162.81 46.08 A 15.947 15.947 0 0 1 166.225 48.316 A 18.653 18.653 0 0 1 167.04 49.05 A 14.745 14.745 0 0 1 169.847 52.776 A 17.242 17.242 0 0 1 170.28 53.64 L 170.28 45 Z M 442.8 45 L 460.8 45 L 460.8 106.2 A 46.543 46.543 0 0 0 460.823 107.61 Q 460.844 108.29 460.883 109.063 A 103.521 103.521 0 0 0 460.98 110.7 Q 461.16 113.4 461.97 116.01 Q 462.78 118.62 464.4 120.51 A 5.296 5.296 0 0 0 467.741 122.316 A 7.685 7.685 0 0 0 468.9 122.4 Q 477.707 122.4 481.847 102.84 A 93.389 93.389 0 0 0 481.86 102.78 L 488.52 102.78 Q 486.54 114.12 483.48 120.69 A 52.101 52.101 0 0 1 481.334 124.835 Q 479.244 128.436 477 130.68 Q 474.04 133.64 470.945 134.78 A 11.999 11.999 0 0 1 469.98 135.09 Q 466.76 135.975 464.117 136.069 A 17.438 17.438 0 0 1 463.5 136.08 A 19.933 19.933 0 0 1 460.158 135.814 Q 458.084 135.461 456.39 134.64 A 16.011 16.011 0 0 1 451.746 131.291 A 15.322 15.322 0 0 1 451.35 130.86 A 18.921 18.921 0 0 1 448.105 125.662 A 21.295 21.295 0 0 1 448.02 125.46 A 36.949 36.949 0 0 1 446.063 119.087 A 40.534 40.534 0 0 1 446.04 118.98 Q 443.34 126 437.31 131.04 Q 431.28 136.08 422.64 136.08 A 28.803 28.803 0 0 1 413.806 134.654 A 33.82 33.82 0 0 1 411.75 133.92 Q 406.26 131.76 401.85 126.81 A 32.602 32.602 0 0 1 397.677 120.839 Q 396.086 117.954 394.818 114.494 A 54.796 54.796 0 0 1 394.65 114.03 A 44.138 44.138 0 0 1 392.744 106.516 Q 392.136 102.892 391.946 98.742 A 84.915 84.915 0 0 1 391.86 94.86 A 80.413 80.413 0 0 1 392.836 82.586 A 94.607 94.607 0 0 1 393.75 77.58 A 59.225 59.225 0 0 1 397.795 65.113 A 52.888 52.888 0 0 1 399.78 61.2 Q 403.92 53.82 410.4 48.96 A 24.192 24.192 0 0 1 422.139 44.337 A 31.607 31.607 0 0 1 426.06 44.1 A 23.41 23.41 0 0 1 428.865 44.276 A 28.707 28.707 0 0 1 430.65 44.55 Q 433.08 45 435.33 46.08 A 15.947 15.947 0 0 1 438.745 48.316 A 18.653 18.653 0 0 1 439.56 49.05 A 14.745 14.745 0 0 1 442.367 52.776 A 17.242 17.242 0 0 1 442.8 53.64 L 442.8 45 Z M 209.16 45 L 227.16 45 L 227.16 60.12 Q 229.32 56.88 231.39 54 A 28.885 28.885 0 0 1 235.319 49.547 A 26.457 26.457 0 0 1 235.98 48.96 Q 238.5 46.8 241.56 45.45 Q 244.62 44.1 248.4 44.1 A 18.805 18.805 0 0 1 251.748 44.378 Q 253.562 44.706 254.975 45.425 A 8.416 8.416 0 0 1 257.4 47.25 A 10.904 10.904 0 0 1 260.279 54.76 A 13.963 13.963 0 0 1 260.28 54.9 A 13.441 13.441 0 0 1 260.153 56.799 Q 259.943 58.275 259.38 59.4 A 10.684 10.684 0 0 1 258.457 60.929 A 7.929 7.929 0 0 1 257.22 62.28 A 8.065 8.065 0 0 1 255.532 63.405 A 7.064 7.064 0 0 1 254.52 63.81 A 11.787 11.787 0 0 1 253.491 64.084 Q 252.981 64.194 252.526 64.235 A 5.835 5.835 0 0 1 252 64.26 A 5.937 5.937 0 0 1 250.917 64.167 Q 250.303 64.053 249.812 63.799 A 3.246 3.246 0 0 1 249.39 63.54 Q 248.4 62.82 247.41 62.01 A 15.339 15.339 0 0 0 245.994 60.986 A 18.569 18.569 0 0 0 245.16 60.48 A 5.051 5.051 0 0 0 243.833 59.966 Q 243.246 59.825 242.562 59.78 A 9.941 9.941 0 0 0 241.92 59.76 Q 237.78 59.76 234 62.64 A 57.035 57.035 0 0 0 227.936 67.956 A 52.06 52.06 0 0 0 227.16 68.76 L 227.16 135 L 209.16 135 L 209.16 45 Z M 170.28 102.78 L 170.28 61.74 A 15.195 15.195 0 0 0 167.806 57.873 A 18.805 18.805 0 0 0 166.41 56.43 A 8.924 8.924 0 0 0 161.634 54.152 A 12.364 12.364 0 0 0 159.66 54 Q 153.9 54 149.76 57.87 A 27.206 27.206 0 0 0 144.553 64.622 A 33.295 33.295 0 0 0 143.1 67.59 Q 140.58 73.44 139.41 80.37 A 83.858 83.858 0 0 0 138.36 89.499 A 71.26 71.26 0 0 0 138.24 93.6 Q 138.24 109.08 142.47 115.74 A 14.749 14.749 0 0 0 146.516 120.052 Q 149.492 122.107 153.465 122.363 A 17.907 17.907 0 0 0 154.62 122.4 A 10.407 10.407 0 0 0 158.159 121.757 A 13.716 13.716 0 0 0 160.11 120.87 A 17.844 17.844 0 0 0 164.434 117.519 A 20.671 20.671 0 0 0 165.15 116.73 A 20.729 20.729 0 0 0 167.94 112.519 A 25.115 25.115 0 0 0 168.84 110.52 Q 170.28 106.92 170.28 102.78 Z M 442.8 102.78 L 442.8 61.74 A 15.195 15.195 0 0 0 440.326 57.873 A 18.805 18.805 0 0 0 438.93 56.43 A 8.924 8.924 0 0 0 434.154 54.152 A 12.364 12.364 0 0 0 432.18 54 Q 426.42 54 422.28 57.87 A 27.206 27.206 0 0 0 417.073 64.622 A 33.295 33.295 0 0 0 415.62 67.59 Q 413.1 73.44 411.93 80.37 A 83.858 83.858 0 0 0 410.88 89.499 A 71.26 71.26 0 0 0 410.76 93.6 Q 410.76 109.08 414.99 115.74 A 14.749 14.749 0 0 0 419.036 120.052 Q 422.012 122.107 425.985 122.363 A 17.907 17.907 0 0 0 427.14 122.4 A 10.407 10.407 0 0 0 430.679 121.757 A 13.716 13.716 0 0 0 432.63 120.87 A 17.844 17.844 0 0 0 436.954 117.519 A 20.671 20.671 0 0 0 437.67 116.73 A 20.729 20.729 0 0 0 440.46 112.519 A 25.115 25.115 0 0 0 441.36 110.52 Q 442.8 106.92 442.8 102.78 Z" vector-effect="non-scaling-stroke"/></g></svg>